#!OML:ASF X:\für Bonn\!DataBase\2005_08_12_Daniel\c3d\Daniel.ASF
:FULLY-SPECIFIED
:DEGREES
65
root -3.51974 9.83259 -1.13501 389.332 -88.5605 -415.019
lowerback 44.9629 -2.81191 3.5265
upperback 4.42589 -3.192 -2.54403
thorax -16.5096 -1.97061 -2.95954
lowerneck 9.04042 2.05941 -1.34337
upperneck -1.59031 2.543 -0.45279
head -2.06093 1.27764 -0.0272675
rclavicle -1.33186e-014 1.51076e-014
rhumerus 84.8765 -21.6687 -196.99
rradius 9.69047
rwrist 161.369
rhand -24.1379 13.4689
rfingers 7.12502
rthumb 2.34414 -16.4979
lclavicle -1.33186e-014 1.51076e-014
lhumerus 62.9659 1.61244 97.2223
lradius 9.27249
lwrist -71.824
lhand -14.7255 -0.112601
lfingers 7.12502
lthumb 11.4295 29.5559
rfemur -23.1956 -53.1394 -39.7231
rtibia 127.407
rfoot -2.40532 57.9622
rtoes -0.215068
lfemur 136.973 138.964 -159.334
ltibia 127.316
lfoot -5.07126 -57.2659
ltoes 13.2945
66
root -3.51512 9.63512 -1.13812 392.096 -88.4492 -418.317
lowerback 45.6066 -2.88316 3.65154
upperback 4.53541 -3.22383 -2.51162
thorax -16.5701 -1.99955 -2.95483
lowerneck 8.90081 2.07044 -1.32171
upperneck -1.60427 2.56382 -0.453943
head -2.03987 1.28842 -0.0307878
rclavicle -3.37934e-015 3.18055e-015
rhumerus 84.8589 -21.4926 -196.756
rradius 9.51244
rwrist 161.242
rhand -24.0755 13.3653
rfingers 7.12502
rthumb 2.4044 -16.6009
lclavicle -3.37934e-015 3.18055e-015
lhumerus 62.909 1.709 97.2204
lradius 9.47105
lwrist -71.5044
lhand -14.7597 -0.313915
lfingers 7.12502
lthumb 11.3965 29.3564
rfemur -20.3989 -54.7031 -44.9875
rtibia 128.962
rfoot 0.511119 60.2741
rtoes 0.221492
lfemur 137.277 136.915 -156.501
ltibia 128.875
lfoot -2.71122 -59.1631
ltoes 13.6739
67
root -3.51148 9.43597 -1.14104 393.726 -88.3505 -420.515
lowerback 46.2713 -2.949 3.76804
upperback 4.64485 -3.25562 -2.49764
thorax -16.6332 -2.02882 -2.96557
lowerneck 8.85912 2.06715 -1.23511
upperneck -1.68751 2.56839 -0.503974
head -2.05785 1.29247 -0.0617596
rclavicle 1.66979e-014 2.06736e-014
rhumerus 84.8582 -21.314 -196.543
rradius 9.36654
rwrist 161.115
rhand -23.9726 13.2871
rfingers 7.12502
rthumb 2.5038 -16.6779
lclavicle 1.66979e-014 2.06736e-014
lhumerus 62.7674 1.80346 97.1985
lradius 9.73266
lwrist -71.2363
lhand -14.825 -0.515111
lfingers 7.12502
lthumb 11.3335 29.1587
rfemur -17.0843 -56.0881 -50.9203
rtibia 130.505
rfoot 3.89408 62.5994
rtoes 0.717068
lfemur 137.853 134.844 -153.371
ltibia 130.403
lfoot 0.242015 -61.0934
ltoes 14.2673
68
root -3.50845 9.23699 -1.14328 394.366 -88.2627 -421.772
lowerback 46.9646 -3.02076 3.86282
upperback 4.77258 -3.30604 -2.47918
thorax -16.6766 -2.06555 -2.94919
lowerneck 8.75392 2.08964 -1.28667
upperneck -1.72581 2.59825 -0.444538
head -2.05314 1.30672 -0.03456
rclavicle -4.37326e-015 1.59028e-014
rhumerus 84.7963 -21.1118 -196.305
rradius 9.2235
rwrist 160.959
rhand -23.7901 13.1944
rfingers 7.12502
rthumb 2.68008 -16.7685
lclavicle -4.37326e-015 1.59028e-014
lhumerus 62.6457 1.92196 97.1961
lradius 9.97145
lwrist -70.9712
lhand -14.955 -0.71715
lfingers 7.12502
lthumb 11.2081 28.9635
rfemur -13.2891 -57.2026 -57.4428
rtibia 132.007
rfoot 7.82773 64.8264
rtoes 1.14379
lfemur 138.699 132.804 -149.962
ltibia 131.898
lfoot 3.44319 -62.9792
ltoes 14.7708
69
root -3.50671 9.03796 -1.14639 394.187 -88.2006 -422.252
lowerback 48.5088 -3.12075 3.93713
upperback 3.8957 -3.35897 -2.51571
thorax -16.5025 -2.0858 -2.912
lowerneck 8.68605 2.09275 -1.27172
upperneck -1.82214 2.60639 -0.443379
head -2.07252 1.31178 -0.0370556
rclavicle -2.41523e-014 -8.74653e-015
rhumerus 84.7792 -20.9151 -196.091
rradius 9.08425
rwrist 160.802
rhand -23.6081 13.0804
rfingers 7.12502
rthumb 2.85584 -16.8802
lclavicle -2.41523e-014 -8.74653e-015
lhumerus 62.5552 2.00644 97.1746
lradius 10.1505
lwrist -70.7619
lhand -15.1454 -0.900147
lfingers 7.12502
lthumb 11.0245 28.7903
rfemur -9.11276 -58.0011 -64.4938
rtibia 133.506
rfoot 12.0836 66.9848
rtoes 1.44179
lfemur 139.866 130.783 -146.229
ltibia 133.353
lfoot 6.96765 -64.8448
ltoes 15.3119
70
root -3.50604 8.84029 -1.14956 393.262 -88.166 -421.976
lowerback 49.2216 -3.16988 3.98227
upperback 4.00091 -3.40973 -2.51746
thorax -16.5028 -2.12089 -2.8928
lowerneck 8.68677 2.11222 -1.35793
upperneck -1.97368 2.62747 -0.365586
head -2.12555 1.32226 0.000202356
rclavicle -2.18663e-015 -9.54166e-015
rhumerus 84.7491 -20.7345 -195.851
rradius 8.93625
rwrist 160.497
rhand -23.3838 13.079
rfingers 7.12502
rthumb 3.07243 -16.8786
lclavicle -2.18663e-015 -9.54166e-015
lhumerus 62.4659 1.75797 96.5398
lradius 10.2344
lwrist -69.8707
lhand -15.3872 -0.916948
lfingers 7.12502
lthumb 10.7913 28.7858
rfemur -4.8014 -58.4676 -71.8046
rtibia 134.969
rfoot 17.3387 68.955
rtoes 1.8474
lfemur 141.354 128.777 -142.159
ltibia 134.779
lfoot 10.8427 -66.6432
ltoes 15.7671
71
root -3.50569 8.6431 -1.15194 392.303 -88.1143 -421.672
lowerback 49.9215 -3.24327 4.05548
upperback 4.1101 -3.47903 -2.53656
thorax -16.4933 -2.16556 -2.89738
lowerneck 8.70286 2.1376 -1.42619
upperneck -2.12997 2.65842 -0.281053
head -2.18303 1.33729 0.0359357
rclavicle -1.98785e-014 1.98785e-014
rhumerus 84.7142 -20.6355 -195.63
rradius 8.78219
rwrist 160.159
rhand -23.2618 13.0093
rfingers 7.12502
rthumb 3.19028 -16.9466
lclavicle -1.98785e-014 1.98785e-014
lhumerus 62.4267 1.51927 95.8782
lradius 10.2021
lwrist -68.9824
lhand -15.7257 -0.936483
lfingers 7.12502
lthumb 10.4647 28.7831
rfemur -0.483839 -58.6123 -79.1605
rtibia 136.409
rfoot 22.6132 70.7733
rtoes 2.00791
lfemur 143.086 126.852 -137.771
ltibia 136.182
lfoot 15.1282 -68.3802
ltoes 16.1957
72
root -3.50643 8.44932 -1.15475 390.695 -88.0919 -420.715
lowerback 50.5753 -3.28629 4.09792
upperback 4.24945 -3.53187 -2.55757
thorax -16.4323 -2.20238 -2.89923
lowerneck 8.70476 2.14068 -1.46812
upperneck -2.28704 2.66102 -0.237516
head -2.2371 1.33917 0.0556654
rclavicle 1.96797e-014 2.06736e-014
rhumerus 84.7119 -20.5694 -195.39
rradius 8.60902
rwrist 159.761
rhand -23.2516 12.9409
rfingers 7.12502
rthumb 3.20009 -17.0148
lclavicle 1.96797e-014 2.06736e-014
lhumerus 62.4474 1.34391 95.4693
lradius 10.1087
lwrist -68.4101
lhand -16.1505 -0.957221
lfingers 7.12502
lthumb 10.055 28.7826
rfemur 3.6038 -58.4256 -86.3925
rtibia 137.827
rfoot 28.3682 72.4209
rtoes 2.13736
lfemur 145.148 125.057 -133.097
ltibia 137.551
lfoot 19.4256 -70.0302
ltoes 16.5484
73
root -3.50729 8.25893 -1.15724 389.445 -88.0777 -420.106
lowerback 51.243 -3.32869 4.12027
upperback 4.35671 -3.58998 -2.5678
thorax -16.406 -2.24005 -2.87638
lowerneck 8.73929 2.15832 -1.51714
upperneck -2.43054 2.68004 -0.217767
head -2.2926 1.34978 0.0680454
rclavicle 1.0635e-014 4.77083e-015
rhumerus 84.6933 -20.5205 -195.145
rradius 8.43092
rwrist 159.273
rhand -23.1884 12.9342
rfingers 7.12502
rthumb 3.26113 -17.0206
lclavicle 1.0635e-014 4.77083e-015
lhumerus 62.3463 1.11764 94.8454
lradius 10.1569
lwrist -67.5774
lhand -16.4972 -0.963199
lfingers 7.12502
lthumb 9.72052 28.7925
rfemur 7.22324 -57.9796 -93.1561
rtibia 139.214
rfoot 34.4035 73.8454
rtoes 2.26123
lfemur 147.541 123.391 -128.063
ltibia 138.888
lfoot 23.9227 -71.608
ltoes 16.838
74
root -3.50838 8.07197 -1.15952 388.085 -88.0525 -419.353
lowerback 51.8725 -3.37958 4.15209
upperback 4.47178 -3.65462 -2.57947
thorax -16.3602 -2.28095 -2.85735
lowerneck 8.69334 2.17812 -1.58046
upperneck -2.51922 2.70367 -0.168105
head -2.31579 1.36161 0.0935143
rclavicle -5.26779e-015 9.54166e-015
rhumerus 84.6365 -20.3448 -194.914
rradius 8.31227
rwrist 158.82
rhand -23.0755 12.9419
rfingers 7.12502
rthumb 3.37016 -17.0112
lclavicle -5.26779e-015 9.54166e-015
lhumerus 62.2623 0.82315 94.0302
lradius 10.2336
lwrist -66.5744
lhand -16.7876 -0.946577
lfingers 7.12502
lthumb 9.44028 28.822
rfemur 10.361 -57.3584 -99.4092
rtibia 140.577
rfoot 39.7625 75.2511
rtoes 2.16577
lfemur 150.134 121.867 -122.814
ltibia 140.199
lfoot 28.3431 -73.132
ltoes 16.93
75
root -3.50937 7.88982 -1.1615 386.915 -88.0389 -418.763
lowerback 52.4812 -3.42383 4.20716
upperback 4.5809 -3.70032 -2.60658
thorax -16.3145 -2.31489 -2.87686
lowerneck 8.66736 2.17752 -1.57088
upperneck -2.63658 2.70572 -0.160261
head -2.35025 1.36343 0.0937413
rclavicle -8.05078e-015 5.56597e-015
rhumerus 84.6334 -20.146 -194.702
rradius 8.2076
rwrist 158.365
rhand -23.0174 12.9843
rfingers 7.12502
rthumb 3.42627 -16.9679
lclavicle -8.05078e-015 5.56597e-015
lhumerus 62.1517 0.529002 93.3398
lradius 10.3815
lwrist -65.7636
lhand -17.0492 -0.945301
lfingers 7.12502
lthumb 9.18785 28.8345
rfemur 12.9021 -56.6145 -105.039
rtibia 141.909
rfoot 45.476 76.4562
rtoes 2.06688
lfemur 152.893 120.548 -117.412
ltibia 141.471
lfoot 33.2942 -74.4859
ltoes 17.087
